<?xml version="1.0" standalone="no"?>
<!DOCTYPE svg PUBLIC "-//W3C//DTD SVG 20010904//EN"
 "http://www.w3.org/TR/2001/REC-SVG-20010904/DTD/svg10.dtd">
<svg version="1.0" xmlns="http://www.w3.org/2000/svg"
 width="500.000000pt" height="500.000000pt" viewBox="0 0 500.000000 500.000000"
 preserveAspectRatio="xMidYMid meet">

<g transform="translate(0.000000,500.000000) scale(0.100000,-0.100000)"
fill="#000000" stroke="none">
<path d="M0 2500 l0 -2500 2500 0 2500 0 0 2500 0 2500 -2500 0 -2500 0 0
-2500z m2488 1768 c73 -22 123 -88 121 -160 l-1 -43 -8 47 c-14 80 -48 112
-180 167 -24 10 -24 10 5 5 17 -3 45 -10 63 -16z m307 -39 c43 -18 85 -70 85
-104 -1 -16 -4 -13 -14 10 -16 36 -48 65 -101 94 -37 20 -18 20 30 0z m-240
-79 c3 -5 -1 -10 -10 -10 -9 0 -13 5 -10 10 3 6 8 10 10 10 2 0 7 -4 10 -10z
m-582 -34 c-88 -42 -197 -123 -243 -181 -47 -60 -52 -48 -6 14 56 76 172 159
261 187 67 21 63 15 -12 -20z m327 -21 c56 -28 90 -93 89 -167 l-1 -53 -9 57
c-14 95 -40 131 -119 167 -34 15 -38 19 -15 14 17 -3 41 -11 55 -18z m-233 -1
c-3 -3 -12 -4 -19 -1 -8 3 -5 6 6 6 11 1 17 -2 13 -5z m203 -54 c0 -22 -23
-33 -38 -18 -15 15 4 49 23 42 8 -4 15 -14 15 -24z m577 -15 c1 -16 1 -16 -3
-2 -8 24 -22 21 -27 -5 -4 -19 -5 -18 -6 5 -1 22 3 28 16 25 10 -2 19 -12 20
-23z m357 -38 c49 -64 70 -126 70 -207 0 -80 -20 -136 -69 -195 -20 -24 -18
-17 12 42 32 64 36 81 36 146 0 89 -29 162 -95 233 -42 46 -42 47 -11 30 18
-9 43 -31 57 -49z m-118 -49 c-8 -45 -45 -137 -46 -115 0 10 7 34 15 54 23 54
18 65 -13 33 -30 -29 -100 -55 -130 -47 -12 3 -10 5 6 6 34 2 118 47 139 76
25 34 36 31 29 -7z m-879 -16 c-19 -20 -23 -87 -7 -97 6 -3 10 -12 10 -18 -1
-7 -10 -1 -20 12 -26 30 -25 76 0 101 25 25 39 26 17 2z m-60 -128 l28 -26
-27 16 c-36 21 -51 20 -73 -4 -10 -11 -21 -18 -23 -15 -8 7 39 55 54 55 7 0
26 -12 41 -26z m610 -76 c13 -12 23 -25 23 -30 0 -4 -9 1 -20 12 -26 26 -34
25 -47 -3 -14 -30 -70 -57 -119 -57 -40 0 -114 31 -136 57 -12 15 -10 15 18 0
18 -9 54 -21 80 -27 58 -13 123 7 148 46 20 29 24 30 53 2z m-1127 -63 c16 -4
45 -4 63 -1 24 5 27 4 12 -3 -27 -13 -92 -13 -137 0 -39 10 -43 15 -32 43 5
14 10 12 35 -8 16 -13 42 -27 59 -31z m725 -87 c28 -14 59 -36 70 -48 16 -18
10 -16 -30 9 -62 39 -104 51 -180 51 -209 -1 -441 -212 -411 -375 4 -18 18
-50 32 -71 26 -38 26 -38 2 -22 -12 8 -34 30 -46 49 -20 29 -23 43 -19 92 8
88 75 183 182 257 135 92 288 115 400 58z m511 -195 c12 -9 37 -13 71 -11 66
4 59 -9 -11 -17 -85 -11 -116 18 -100 93 l7 37 7 -44 c4 -26 15 -50 26 -58z
m-725 -39 c38 -37 43 -39 106 -39 63 0 64 0 34 -13 -61 -24 -142 9 -188 77
-13 19 -23 43 -23 55 0 17 3 15 16 -10 8 -17 33 -48 55 -70z m-667 50 c3 -8 2
-12 -4 -9 -6 3 -10 1 -10 -6 0 -7 -2 -10 -5 -7 -5 5 4 38 10 38 2 0 6 -7 9
-16z m731 -344 c-8 -16 -28 -36 -43 -44 -42 -22 -107 -96 -136 -154 -37 -73
-52 -186 -39 -282 6 -41 9 -77 7 -79 -1 -1 -9 17 -16 40 -7 26 -13 95 -13 164
0 111 2 124 28 177 35 70 97 136 168 177 30 17 55 31 57 31 1 0 -4 -13 -13
-30z m301 -629 c42 -49 86 -78 170 -115 56 -25 57 -26 19 -20 -58 9 -145 50
-184 87 -41 40 -71 101 -70 147 l0 35 14 -45 c8 -25 31 -65 51 -89z m-834
-970 c32 -36 35 -59 12 -102 -37 -73 -196 -79 -252 -10 -8 10 -11 33 -8 61 7
75 71 107 181 88 26 -4 49 -16 67 -37z m1986 12 c18 -13 30 -28 27 -33 -7 -11
-62 -5 -103 11 -28 12 -37 11 -60 -2 -22 -12 -27 -22 -25 -49 1 -18 7 -37 15
-41 18 -12 75 -11 83 1 3 6 26 10 51 10 42 0 44 -1 34 -21 -23 -41 -131 -63
-194 -39 -73 27 -91 109 -36 160 48 45 150 46 208 3z m-2584 -43 c25 -38 49
-70 53 -70 5 0 26 31 49 68 l40 67 53 3 52 3 -3 -98 -3 -98 -35 0 -35 0 -5 65
-5 65 -43 -67 c-60 -94 -76 -92 -145 17 l-32 50 -3 -67 -3 -68 -33 0 c-19 0
-36 6 -39 13 -2 6 -5 51 -6 100 l-2 87 50 0 50 0 45 -70z m826 61 c0 -3 20
-28 45 -54 25 -27 43 -52 41 -56 -3 -4 4 -8 15 -8 17 -2 19 5 19 63 l0 64 35
0 35 0 0 -100 0 -100 -44 0 c-47 0 -47 0 -130 104 -16 20 -31 34 -34 32 -3 -3
-5 -34 -6 -68 l-1 -63 -37 -3 -38 -3 0 100 0 101 50 -1 c28 -1 50 -4 50 -8z
m384 -64 c4 -40 4 -86 0 -101 -5 -23 -11 -27 -38 -24 l-31 3 -3 98 -3 97 34 0
35 0 6 -73z m346 46 c25 -20 29 -28 18 -34 -18 -10 -57 -6 -85 9 -66 36 -137
-32 -86 -83 12 -12 26 -15 55 -11 125 19 120 19 116 1 -8 -42 -127 -71 -190
-46 -74 29 -93 110 -37 162 28 27 37 29 104 29 65 0 77 -3 105 -27z m360 7 c0
-17 -7 -20 -40 -20 l-39 0 -3 -77 -3 -78 -35 0 -35 0 -3 77 -3 77 -37 3 c-26
2 -38 8 -40 21 -3 15 8 17 117 17 114 0 121 -1 121 -20z m328 3 c-3 -15 -17
-19 -78 -23 -58 -4 -75 -8 -75 -20 0 -11 15 -16 63 -18 45 -2 62 -7 62 -17 0
-10 -17 -15 -62 -17 -54 -3 -63 -6 -63 -22 0 -16 9 -19 80 -20 73 -1 80 -3 80
-21 0 -19 -8 -20 -117 -23 l-118 -3 0 101 0 100 116 0 c105 0 115 -2 112 -17z
m552 -23 l0 -40 60 0 60 0 0 40 0 40 40 0 41 0 -3 -97 -3 -98 -37 -3 c-37 -3
-37 -3 -40 40 l-3 43 -55 0 -55 0 -5 -40 c-5 -36 -8 -40 -36 -43 -39 -4 -44
10 -44 121 l0 77 40 0 40 0 0 -40z"/>
<path d="M1518 1429 c-21 -12 -24 -69 -6 -87 15 -15 63 -16 89 -2 25 14 25 61
1 83 -21 19 -58 22 -84 6z"/>
</g>
</svg>
